<svg width="280" height="300" xmlns="http://www.w3.org/2000/svg">

 <g>
  <title>background</title>
  <rect fill="none" id="canvas_background" height="302" width="282" y="-1" x="-1"/>
 </g>
 <g>
  <title>Layer 1</title>
  <g id="svg_1" transform="matrix(1.4968620462751594,0.06523651177447996,-0.06523651177447996,1.4968620462751594,-137.7274570772343,8.183514757863776) ">
   <g id="svg_2">
    <g id="svg_3">
     <path id="svg_4" fill=" rgb(251, 176, 59)" d="m146.250195,37.88747l2.9,0l-8.1,90.3c0.1,-32.5 0.2,-85.3 0.2,-85.3c0,-2.8 2.3,-5 5,-5z" class="st3"/>
     <path id="svg_5" fill=" rgb(131, 58, 228)" d="m157.150195,32.08747l2.9,0.3l-15.9,89.2c2.9,-32.4 7.6,-85 7.6,-85c0.2,-2.7 2.6,-4.7 5.4,-4.5z" class="st0"/>
     <path id="svg_6" fill=" rgb(15, 169, 245)" d="m164.750195,28.18747c1.1,-0.8 2.4,-1.1 3.7,-0.8l2.9,0.5l-23.6,87.5l15,-84c0.2,-1.3 0.9,-2.5 2,-3.2z" class="st4"/>
     <path id="svg_7" fill=" rgb(15, 169, 245)" d="m143.650195,138.48747c1,1.7 2.6,3 4.5,3.5l42.4,11.5l-43.3,-7.7c-2.7,-0.5 -4.5,-3.1 -4,-5.8l0.3,-1.6c0.1,0 0.1,0.1 0.1,0.1z" class="st4"/>
     <path id="svg_8" fill=" rgb(131, 58, 228)" d="m141.850195,146.48747c0,0 0.1,-0.6 0.1,-1.6c1.1,1.7 2.8,2.9 4.9,3.2l43.2,7.7l-43.8,-3.9c-1.3,-0.1 -2.5,-0.8 -3.4,-1.8c-0.7,-1 -1.1,-2.3 -1,-3.6z" class="st0"/>
     <path id="svg_9" fill=" rgb(251, 176, 59)" d="m141.050195,151.48747c0,0.1 0.1,0.1 0.1,0.2c1.3,1.5 3.1,2.5 5,2.6l43.8,3.9l-43.9,-0.1c-1.3,0 -2.6,-0.5 -3.5,-1.5c-0.9,-0.9 -1.5,-2.2 -1.5,-3.5c0,0.1 0,-0.5 0,-1.6z" class="st3"/>
    </g>
    <path id="svg_10" fill=" rgb(255, 255, 255)" d="m252.950195,48.38747l-28.8,106.4c-0.3,1.3 -1.2,2.4 -2.3,3c-1.2,0.7 -2.5,0.8 -3.8,0.5l-69.2,-18.7c-1.3,-0.3 -2.4,-1.2 -3,-2.3c-0.7,-1.2 -0.8,-2.5 -0.5,-3.8l28.8,-106.5c0.7,-2.7 3.5,-4.2 6.1,-3.5l69.2,18.7c2.6,0.8 4.2,3.5 3.5,6.2z" class="st1"/>
    <path id="svg_11" fill=" rgb(255, 255, 255)" d="m189.850195,34.48747c4.3,1.2 9.8,2.6 15.6,4.2c4.9,1.3 10,2.7 14.9,4c5.9,1.6 11.4,3.1 15.6,4.2c4.9,1.3 8.1,2.2 8.4,2.3c-0.1,0.3 -1.4,5.1 -3.4,12.5c-5.1,18.8 -14.7,54.4 -20,74.1c-2.2,8.2 -3.7,13.7 -3.8,14c-0.3,-0.1 -3.2,-0.9 -7.7,-2.1c-4.3,-1.2 -10,-2.7 -16.1,-4.3c-5,-1.4 -10.3,-2.8 -15.3,-4.1c-6.1,-1.6 -11.7,-3.2 -16.1,-4.3c-4.7,-1.3 -7.9,-2.1 -8.2,-2.2c0.1,-0.3 1.5,-5.5 3.6,-13.4c5.3,-19.8 15.2,-56.4 20.3,-75.2c1.9,-7.1 3.1,-11.6 3.2,-11.9c0.5,-0.1 3.9,0.8 9,2.2z" class="st1"/>
    <path id="svg_12" fill=" rgb(255, 0, 255)" d="m219.850195,78.58747c2.8,1.2 3.5,3.5 3.5,3.5c1.4,3.9 -1,7.3 -1.4,7.9c-0.4,0.5 -0.1,0.9 -0.1,0.9c1.4,2.1 1.1,4.1 1.1,4.1c-0.6,4.9 -3.3,6.6 -4.1,6.9c-0.8,0.4 -0.8,1.7 -0.8,1.7c-0.4,2.7 -1.5,4.6 -1.5,4.6c-1.4,2.1 -3.3,3 -5,3.3l9.4,24.2c5.3,-19.7 14.9,-55.2 20,-74.1l-21.1,17z" class="st7"/>
    <path id="svg_13" fill=" rgb(255, 0, 255)" d="m194.950195,68.38747c1.2,0.4 1.1,0.7 2.8,-0.4c1.6,-1.2 3.5,-1.1 3.5,-1.1c0.2,0 0.4,0 0.6,0.1l3.6,-28.2c-5.8,-1.6 -11.3,-3.1 -15.6,-4.2l5.1,33.8z" class="st7"/>
    <path id="svg_14" fill=" rgb(255, 0, 255)" d="m187.950195,112.88747c-2.7,-1.2 -4.1,-3 -4.8,-4.3l-21.1,26.3c4.3,1.2 10,2.7 16.1,4.3l11,-26c-0.8,-0.1 -1.2,-0.3 -1.2,-0.3z" class="st7"/>
    <path id="svg_15" fill=" rgb(255, 0, 255)" d="m176.250195,101.48747c-1.5,-4 0.6,-7.4 1.1,-7.9c0.4,-0.5 -0.2,-1 -0.2,-1c-3,-5.6 1.1,-9.2 1.6,-9.8c0.5,-0.6 0.1,-1.3 0.1,-1.3s-0.9,-3.5 1,-6.1c1.7,-2.3 3.9,-2.8 5.4,-2.8c1.4,0 0.8,-1 2.6,-2.8l-10,-25.7c-5.1,18.9 -15,55.5 -20.3,75.2l20,-15.9c-0.9,-1.1 -1.3,-1.9 -1.3,-1.9z" class="st7"/>
    <path id="svg_16" fill=" rgb(255, 0, 255)" d="m210.050195,69.78747c1.5,-0.2 2.6,0.1 2.6,0.1c1.5,0.4 2.6,1.1 3.5,1.8l19.9,-24.7c-4.3,-1.1 -9.7,-2.6 -15.6,-4.2l-11.5,27.3c0.2,-0.1 0.6,-0.2 1.1,-0.3z" class="st7"/>
    <path id="svg_17" fill=" rgb(255, 0, 255)" d="m201.850195,116.58747c-2,0.1 -3.6,-0.4 -4.9,-1l-3.6,27.8c6.1,1.6 11.8,3.2 16.1,4.3l-4.8,-32.1c-1.5,0.9 -2.8,1 -2.8,1z" class="st7"/>
    <path id="svg_18" fill=" rgb(44, 44, 44)" d="m250.050195,39.88747l-69.2,-18.7c-3.6,-1 -7.4,0.9 -8.8,4.3l-3.1,-0.6c-2,-0.3 -3.9,0.1 -5.6,1.2c-1.4,0.9 -2.3,2.3 -2.8,3.8c-2,-0.2 -3.2,-0.3 -3.2,-0.3c-3.7,-0.3 -7.1,2.2 -7.9,5.8c-2,0 -3.2,0 -3.2,0c-4.1,0 -7.4,3.3 -7.4,7.4l-0.2,110.3c0,2 0.8,3.8 2.2,5.3c1.4,1.4 3.3,2.2 5.2,2.2l71.6,0.1c1.9,0.4 3.8,0.2 5.4,-0.8c1.7,-1 3,-2.6 3.5,-4.5l0,0l28.8,-106.4c1,-3.9 -1.4,-8 -5.3,-9.1zm-103.8,-2l2.9,0l-8.1,90.3c0.1,-32.5 0.2,-85.3 0.2,-85.3c0,-2.8 2.3,-5 5,-5zm10.9,-5.8l2.9,0.3l-15.9,89.2c2.9,-32.4 7.6,-85 7.6,-85c0.2,-2.7 2.6,-4.7 5.4,-4.5zm7.6,-3.9c1.1,-0.8 2.4,-1.1 3.7,-0.8l2.9,0.5l-23.6,87.5l15,-84c0.2,-1.3 0.9,-2.5 2,-3.2zm-21.1,110.3c1,1.7 2.6,3 4.5,3.5l42.4,11.5l-43.3,-7.7c-2.7,-0.5 -4.5,-3.1 -4,-5.8l0.3,-1.6c0.1,0 0.1,0.1 0.1,0.1zm-1.8,8c0,0 0.1,-0.6 0.1,-1.6c1.1,1.7 2.8,2.9 4.9,3.2l43.2,7.7l-43.8,-3.9c-1.3,-0.1 -2.5,-0.8 -3.4,-1.8c-0.7,-1 -1.1,-2.3 -1,-3.6zm-0.8,5c0,0.1 0.1,0.1 0.1,0.2c1.3,1.5 3.1,2.5 5,2.6l43.8,3.9l-43.9,-0.1c-1.3,0 -2.6,-0.5 -3.5,-1.5c-0.9,-0.9 -1.5,-2.2 -1.5,-3.5c0,0.1 0,-0.5 0,-1.6zm111.9,-103.1l-28.8,106.4c-0.3,1.3 -1.2,2.4 -2.3,3c-1.2,0.7 -2.5,0.8 -3.8,0.5l-69.2,-18.7c-1.3,-0.3 -2.4,-1.2 -3,-2.3c-0.7,-1.2 -0.8,-2.5 -0.5,-3.8l28.8,-106.5c0.7,-2.7 3.5,-4.2 6.1,-3.5l69.2,18.7c2.6,0.8 4.2,3.5 3.5,6.2z" class="st2"/>
    <path id="svg_19" fill=" rgb(131, 58, 228)" d="m206.750195,69.68747c0.8,1 1.4,0.6 1.4,0.6s0.2,-0.1 0.6,-0.2l11.6,-27.3c-4.9,-1.3 -10,-2.7 -14.9,-4l-3.6,28.2c2.7,0.2 4.2,1.7 4.9,2.7z" class="st0"/>
    <path id="svg_20" fill=" rgb(131, 58, 228)" d="m216.050195,71.68747c2.4,2.1 2.4,4.9 2.4,5.4c0,0.3 0.1,0.7 0.3,0.9c0.3,0.4 0.8,0.4 0.8,0.4c0.1,0 0.1,0.1 0.2,0.1l21.1,-16.8c2,-7.4 3.3,-12.2 3.4,-12.5c-0.3,-0.1 -3.5,-1 -8.4,-2.3l-19.8,24.8z" class="st0"/>
    <path id="svg_21" fill=" rgb(131, 58, 228)" d="m177.850195,44.08747l9.9,25.7c0.2,-0.2 0.4,-0.4 0.6,-0.6c2.6,-2.1 5.3,-1.2 6.5,-0.8c0,0 0,0 0,0l-5.1,-33.9c-5.1,-1.4 -8.5,-2.3 -8.8,-2.4c0,0.3 -1.2,4.9 -3.1,12z" class="st0"/>
    <path id="svg_22" fill=" rgb(131, 58, 228)" d="m194.050195,113.28747c-0.4,-0.5 -1.1,-0.2 -1.1,-0.2l-0.6,0.2c-1.3,0.3 -2.5,0.2 -3.3,0.1l-11,26c5,1.4 10.3,2.8 15.3,4.1l3.6,-27.8c-1.6,-1 -2.6,-2.1 -2.9,-2.4z" class="st0"/>
    <path id="svg_23" fill=" rgb(131, 58, 228)" d="m208.250195,111.58747c-0.6,-0.1 -0.8,0.7 -0.8,0.7c-0.8,1.6 -1.8,2.7 -2.8,3.3l4.8,32.1c4.5,1.2 7.4,2 7.7,2.1c0.1,-0.3 1.6,-5.8 3.8,-14l-9.4,-24.2c-1.6,0.3 -3,0.1 -3.3,0z" class="st0"/>
    <path id="svg_24" fill=" rgb(131, 58, 228)" d="m182.550195,107.18747c-0.1,-0.6 -0.8,-0.7 -0.8,-0.7l-0.9,-0.4c-1.6,-0.8 -2.7,-1.9 -3.4,-2.8l-20,15.9c-2.1,7.9 -3.5,13.1 -3.6,13.4c0.3,0.1 3.4,0.9 8.2,2.2l21.1,-26.3c-0.4,-0.6 -0.6,-1.1 -0.6,-1.3z" class="st0"/>
    <path id="svg_25" fill=" rgb(44, 44, 44)" d="m185.250195,72.48747c-1.6,0 -3.7,0.5 -5.4,2.8c-1.9,2.6 -1,6.1 -1,6.1s0.3,0.7 -0.1,1.3c-0.5,0.6 -4.5,4.2 -1.6,9.8c0,0 0.7,0.5 0.2,1c-0.4,0.5 -2.6,3.9 -1.1,7.9c0,0 0.3,0.8 1.2,1.9c0.7,0.9 1.8,2 3.4,2.8l0.9,0.4c0,0 0.7,0.1 0.8,0.7c0,0.2 0.2,0.8 0.6,1.5c0.7,1.3 2.2,3.1 4.8,4.3c0,0 0.4,0.2 1.1,0.3c0.8,0.2 2,0.3 3.3,-0.1l0.6,-0.2c0,0 0.6,-0.3 1.1,0.2c0.3,0.3 1.3,1.4 2.9,2.3c1.3,0.6 2.9,1.1 4.9,1c0,0 1.3,-0.1 2.7,-1c1,-0.6 2.1,-1.6 2.8,-3.3c0,0 0.2,-0.9 0.8,-0.7c0.3,0.1 1.7,0.3 3.3,0c1.6,-0.3 3.6,-1.1 5,-3.3c0,0 1.1,-1.9 1.5,-4.6c0,0 0.1,-1.4 0.8,-1.7c0.8,-0.4 3.5,-2.1 4.1,-6.9c0,0 0.2,-2 -1.1,-4.1c0,0 -0.4,-0.4 0.1,-0.9c0.4,-0.6 2.8,-4 1.4,-7.9c0,0 -0.7,-2.3 -3.5,-3.5c-0.1,0 -0.1,-0.1 -0.2,-0.1c0,0 -0.5,-0.1 -0.8,-0.4c-0.2,-0.2 -0.3,-0.6 -0.3,-0.9c-0.1,-0.6 0,-3.4 -2.4,-5.4c-0.8,-0.7 -1.9,-1.4 -3.5,-1.8c0,0 -1.1,-0.3 -2.6,-0.1c-0.5,0.1 -0.9,0.2 -1.2,0.3c-0.4,0.1 -0.6,0.2 -0.6,0.2s-0.6,0.4 -1.4,-0.6c-0.7,-1 -2.2,-2.4 -5,-2.7c-0.2,0 -0.4,0 -0.6,-0.1c0,0 -1.8,-0.1 -3.5,1.1c-1.6,1.1 -1.6,0.9 -2.8,0.4c0,0 0,0 0,0c-1.2,-0.4 -4,-1.3 -6.5,0.8c-0.2,0.2 -0.4,0.4 -0.6,0.6c-1.7,1.6 -1.1,2.6 -2.5,2.6zm3.9,38.2c-1.9,-0.3 -2.5,-1.1 -3.1,-2c-0.7,-0.9 -0.9,-1.2 -1,-1c-0.1,0.2 0.2,1 0.4,1.4c0.2,0.4 0.2,1.1 -0.4,0.5c-0.7,-0.6 -1.4,-2.5 -1.7,-3.3c-0.3,-0.8 -0.7,-0.8 -1.2,-0.9c-0.5,-0.1 -2.5,-0.8 -3.8,-2.3c-1.2,-1.4 0.1,-0.4 0.4,0c0.3,0.3 1.1,1 1.5,0.8c0.4,-0.2 0.5,-0.1 1,0.2c0.5,0.4 1.4,0.9 1.9,0.8c0.5,-0.1 0.2,-0.4 -0.2,-0.8c-0.4,-0.3 -1.3,-1.2 -0.6,-1c0.7,0.3 1.2,0.1 0.4,-0.4c-0.8,-0.4 -2.5,-1.6 -3.1,-3.4c-0.6,-1.8 -0.2,-2.5 -0.1,-3c0.1,-0.5 -0.2,-0.8 -0.5,0.1c-0.3,0.9 -0.6,2.1 0,3.5c0,0 0.7,1.5 -0.2,0.6c-0.9,-0.9 -1,-2.9 -0.7,-4.4c0.3,-1.4 0.9,-1.7 0.4,-1.9c-0.5,-0.2 -0.2,-0.6 0.4,-1c0.6,-0.4 0.9,-0.9 1.6,-1.6c0.6,-0.6 1.5,-0.7 0.7,-1.3c-0.8,-0.6 -0.9,-0.7 -1.2,-0.5c-0.3,0.2 -0.7,0.2 -0.5,-0.3c0.2,-0.5 0.4,-0.8 0.7,-1c0.3,-0.2 0.4,-0.6 0.1,-0.7c-0.3,-0.2 -0.4,-0.7 -1.1,0c-0.7,0.6 -1,1 -1.3,1.5c-0.3,0.4 -0.5,0.5 -0.6,-0.4c-0.1,-0.9 0.2,-3.4 1.6,-4.8c0,0 0.1,-0.3 0.7,-0.4c0.6,0 0.7,-0.4 0.7,-0.6c0,-0.3 -0.3,-0.4 -0.2,-1.3c0.1,-0.9 0.4,-1 0.5,-0.5c0.2,0.6 0.6,1.3 1.2,1.7c0.6,0.4 1.5,0.4 1.5,1c-0.1,0.5 0.2,0.6 0.9,0.5c0.7,-0.1 1.1,0.1 1.6,1c0.4,0.9 1,2.6 0.3,4.4c0,0 -0.5,1 -1.1,1c-0.6,0 -1.3,0.4 -0.6,0.8c0.7,0.4 0.6,0.7 0.6,1.1c0,0.4 0,0.8 0.4,1.1c0.4,0.3 2,1.1 2,3.2c0,0 0,1.7 -0.9,3c-0.9,1.4 -0.8,1.5 -0.2,1.2c0.6,-0.3 1.3,-1 2.7,-0.7c1.5,0.4 2.2,1.3 2.6,2.2c0,0 0.1,0.2 0.2,0.9c0.1,0.7 0.3,0.4 0.3,-0.1c0,-0.5 0.2,-0.5 0.3,0.3c0.1,0.8 0,1.7 0,2.2c0,0.5 0.3,0.1 0.5,-0.8c0.2,-0.9 0.7,-2.2 -1.1,-4c0,0 -0.6,-0.4 -0.5,-0.7c0.1,-0.3 1.2,0.3 1.8,0.9c0.6,0.6 2,2.6 1.1,5.5c-0.7,3.2 -3.3,4 -5.1,3.7zm-1.6,-24.4c0,0 -0.2,-0.5 -0.6,-1.1c-0.4,-0.6 -0.3,-0.9 0.3,-1.3c0,0 1.5,-1.1 1.9,-2.3c0.4,-1.2 0.5,-1.8 1.3,-1.8c0.8,0 3.8,0.1 5.6,-2.2c0,0 0.3,-0.4 0.5,-0.7c0.2,-0.3 0.1,-0.7 0.7,-0.3c0.5,0.4 3.2,3 6.4,1.8c0,0 0.7,-0.6 1,0.1c0.3,0.7 1.9,3.8 6.1,4.4c0,0 0.8,0 1.1,0c0.3,0 0.7,-0.4 0.7,0.3c0,0.7 -0.9,3.6 1.3,6.1c0,0 0.3,0.2 0.5,0.4c0.2,0.2 0.2,0.3 -0.2,0.8c-0.4,0.5 -3.3,3.5 -2,7.2c0,0 0.2,0.6 0.3,0.8c0.1,0.2 0.2,0.6 -0.4,0.6c-1,0.1 -2.5,0.2 -4,1.1c0,0 -1.9,1.2 -2.8,3.6l-0.2,0.7c0,0 0,0.5 -0.6,0.2c-0.6,-0.3 -2.9,-1.7 -5.9,-0.8c0,0 -1.2,0.3 -1.7,0.7c-0.5,0.3 -0.8,0.5 -1,-0.5c-0.2,-1 -1.2,-3.7 -4.5,-5c0,0 -1.3,-0.6 -1.8,-0.6c-0.4,0 -0.8,-0.2 -0.6,-0.9c0.3,-0.8 0.5,-3.8 -1.8,-5.4c0,0 -0.8,-0.3 -0.4,-0.8c0.3,-0.7 1.5,-2.8 0.8,-5.1zm25.9,22.5c0,0 -0.7,0.3 -1,0.4c-0.3,0.1 -0.1,-0.1 0.5,-0.6c0.6,-0.5 1,-1.3 1.3,-1.8c0.3,-0.5 0.3,-0.8 -0.4,0c-0.6,0.8 -2.2,2.3 -4.7,2.5c0,0 -0.7,0 -1,-0.1c-0.2,-0.2 -0.7,-1 -1,-0.2c-0.3,0.8 -0.3,1 -0.7,1.1c-0.4,0.1 -0.5,-0.2 -0.3,-0.8c0.1,-0.5 -0.3,-1.1 -0.5,-0.5c-0.2,0.7 0,1.3 -0.6,1.8c-0.6,0.4 -1.5,1.3 -1,0.1c0.5,-1.2 0,-0.6 -0.5,0c-0.5,0.6 -1,1.3 -2.4,1.7c-1.4,0.3 -2.2,0.1 -2.7,-1c-0.5,-1 -0.7,-2.1 -1,-2c-0.3,0.1 -0.2,0.6 -0.2,1c0.1,0.4 0.2,1 -0.1,0.7c-0.3,-0.2 -0.6,-0.1 -0.5,0.3c0.1,0.4 0.3,0.7 0.6,1c0.3,0.4 0.2,0.4 -0.4,0.1c-0.6,-0.3 -1.5,-1 -1.5,-2.9c0,-1.9 1.2,-3.5 2,-3.8c0.8,-0.3 1.5,-0.5 2,-0.5c0.5,-0.1 0.6,-0.4 0.3,-0.6c-0.3,-0.2 0.1,-0.5 1.7,0c0,0 1.4,0.6 1.9,0.9c0.5,0.3 0.7,1.5 1.1,1.1c0.4,-0.4 0.7,-0.5 0.9,-1.4c0,0 0.5,-2.8 2.9,-4.5c0,0 1.6,-1.2 3.9,-0.6c0,0 0.5,0.1 0.8,0.1c0.4,0 0.8,0.2 1.2,0.6c0.4,0.4 0.6,0.5 1.2,0.7c0.6,0.1 0.7,0.1 0.8,0.8c0.3,1 0,4.4 -2.6,6.4zm-19.7,-38.8c1.7,0.2 0.8,0.8 0.6,1.6c-0.2,0.8 0,0.8 0.5,0.1c0.4,-0.7 0.8,-1 1.2,-1.3c0.4,-0.3 0.3,0.2 0.1,1c-0.2,0.9 -0.3,1.8 0,1.9c0.3,0.1 0.3,-0.4 0.4,-0.7c0.1,-0.4 0.2,-0.6 0.4,-1.4c0.3,-0.8 1,-1.1 0.8,-0.7c-0.2,0.5 -0.4,1.3 -0.4,1.3c-0.3,1.8 0.3,0.3 0.3,0.3c0.2,-0.7 1.3,-3.1 3.3,-3.3c1.9,-0.3 3.6,0.8 4.6,2c1,1.3 1.4,1.3 3,0.6c1.7,-0.7 2.8,-0.5 3.7,-0.1c0.9,0.4 0.1,0.6 -1.3,0.9c-1.4,0.3 -1.6,0.5 -2.6,1.1c-1,0.5 0.7,0.1 1.9,-0.3c1.3,-0.4 1.2,0.4 0.7,0.5c-0.6,0.1 -1.1,0.4 -1.1,0.4c-1,0.8 0.1,0.5 0.1,0.5c2.5,-0.7 4.1,0.7 4.1,0.7c2.2,1.7 1.4,4.6 1.4,4.6c0.8,-1.1 0.7,-3.3 0.7,-3.3c0.2,0.9 0.4,1.1 0.2,2.7c-0.2,1.6 0.4,0.6 0.6,0c0.2,-0.6 0.2,-1 0.6,-0.2c0.3,0.5 0.6,0.6 1,0.6c0.3,0.1 0.7,0.2 0.7,0.2c2.5,0.5 2.9,2.7 2.9,2.7c-0.9,-0.8 -2.1,-1.2 -3.1,-1.3c-0.9,-0.1 -0.2,0.5 -0.2,0.5c2.4,0.7 3,2 3,2c-0.8,-0.7 -1.7,-1 -2.7,-1.2c-1.1,-0.2 -1.2,0 -0.6,0.3c0.7,0.3 1.6,0.9 2.2,1.4c0.5,0.5 0.2,0.6 -0.4,0.2c-0.6,-0.4 -0.5,0 -0.2,0.3c0.3,0.3 0.8,1 0.8,1c0.9,1.8 -0.3,3.7 -0.7,4.4c-0.5,0.6 -0.9,0.9 0,1.6c0.9,0.7 1.1,1.9 1.1,1.9c0.6,3.2 -1.1,5 -2,5.7c-0.8,0.6 -1.5,-0.1 -1.5,-0.1c-0.6,-0.7 -0.8,-1.2 -0.9,-2.3c-0.1,-1.3 -0.3,-1.3 -0.5,-0.4c-0.2,0.9 -0.2,1.5 0.1,2.5c0.3,1 -0.5,0.3 -0.5,0.3c-1.3,-1.7 -0.6,-3.8 -0.2,-4.9c0.4,-1.1 0.2,-1 -0.3,-0.4c-0.4,0.6 -0.8,1.2 -0.9,2.2c-0.1,1 -0.5,-0.2 -0.5,-0.2c-0.8,-2.9 1,-4.2 1.8,-4.9c0.8,-0.7 0.4,-0.6 -0.1,-1.1c-0.5,-0.5 -1.2,-0.7 -2,-2.4c-0.8,-1.7 0,-4 0.7,-4.6c0.8,-0.6 0.3,-0.5 -0.6,-0.3c-0.9,0.2 -0.1,-0.4 -0.1,-0.4c1.3,-0.8 -0.1,-0.5 -0.1,-0.5c-2.4,0.8 -3.6,0.5 -5.5,-0.6c-1.9,-1.1 -2.5,-3.3 -2.6,-3.9c-0.1,-0.6 -0.1,-1.4 -1.4,0c-1.3,1.3 -2.9,0.9 -2.9,0.9c-2.5,-0.2 -3,-1.8 -3.7,-2.4c-0.7,-0.5 -0.9,0.1 -0.9,0.1c-2,4.3 -5.3,3.8 -5.3,3.8c2.9,-0.8 3.1,-2.9 3.1,-2.9c-1.5,2.1 -3.8,1.8 -4.5,1.3c-0.5,-0.4 -0.5,-0.3 -0.8,-1.3c-0.3,-1 -0.3,0 -0.3,0.7c0,0.7 -0.3,0.5 -0.5,-0.3c-0.2,-0.9 -0.5,-0.2 -0.5,-0.2s0.1,0.6 -0.4,2.6c-0.4,2 -2.5,2.8 -2.5,2.8c2,0.2 3.4,-1.2 3.4,-1.2c-1.5,3.6 -4.5,2.7 -5.3,2.3c-0.8,-0.4 -1.3,-1.6 -1.3,-2.9c0,-1.3 0.4,-2.2 1.5,-3.5c1.1,-1.3 3,-1.1 4,-0.9c1,0.1 0.8,-0.2 0.3,-0.4c-0.5,-0.2 -0.5,-0.4 0.2,-1.4c0.6,-1 0.8,-1.5 2.5,-2.7c1.6,-2 3.4,-1.6 3.4,-1.6z" class="st2"/>
    <path id="svg_26" fill=" rgb(96, 247, 245)" d="m186.950195,92.38747c2.4,1.6 2.1,4.7 1.8,5.4c-0.3,0.8 0.1,0.9 0.6,0.9c0.4,0 1.8,0.6 1.8,0.6c3.3,1.2 4.3,4 4.5,5c0.2,1 0.5,0.8 1,0.5c0.5,-0.3 1.7,-0.7 1.7,-0.7c3,-0.9 5.3,0.5 5.9,0.8c0.6,0.3 0.6,-0.2 0.6,-0.2l0.2,-0.7c0.8,-2.5 2.8,-3.6 2.8,-3.6c1.5,-0.9 3,-1 4,-1.1c0.6,0 0.6,-0.4 0.4,-0.6c-0.1,-0.2 -0.3,-0.8 -0.3,-0.8c-1.2,-3.7 1.6,-6.7 2,-7.2c0.4,-0.5 0.4,-0.7 0.2,-0.8c-0.2,-0.2 -0.5,-0.4 -0.5,-0.4c-2.2,-2.5 -1.4,-5.4 -1.3,-6.1c0,-0.7 -0.4,-0.3 -0.7,-0.3c-0.3,0 -1.1,0 -1.1,0c-4.3,-0.6 -5.9,-3.7 -6.1,-4.4c-0.3,-0.7 -1,-0.1 -1,-0.1c-3.1,1.2 -5.9,-1.4 -6.4,-1.8c-0.5,-0.4 -0.5,0 -0.7,0.3c-0.2,0.3 -0.5,0.7 -0.5,0.7c-1.8,2.3 -4.8,2.2 -5.6,2.2c-0.8,0 -0.9,0.6 -1.3,1.8c-0.4,1.2 -1.9,2.3 -1.9,2.3c-0.6,0.4 -0.7,0.7 -0.3,1.3c0.4,0.6 0.6,1.1 0.6,1.1c0.8,2.3 -0.5,4.4 -1,5.2c-0.1,0.4 0.6,0.7 0.6,0.7zm5.4,-6.3c0.8,-0.5 2.1,-1.6 5.7,-1.8c3.8,-0.3 6.3,1.4 7.2,2.1c0.8,0.8 0.4,0.9 -0.1,0.6c-0.6,-0.3 -1.7,-1.5 -5.5,-1.7c-3.7,-0.3 -8.5,2.1 -8.5,2.1c-1.1,0.2 0.5,-0.8 1.2,-1.3zm-1.9,2.5c0,0 3.6,-1.1 4.8,-1.4c1.2,-0.3 3.9,-0.7 6.2,0c1.9,0.6 3.9,2.2 5.5,3.5c1.6,1.3 2,1.8 1.6,0.7c-0.4,-1.2 -0.6,-1.3 -0.9,-2c-0.3,-0.7 -0.2,-0.9 0.8,0.2c0.9,1.1 1.5,2.4 1.7,3c0,0 0.6,1.1 -0.9,1.7c-1.6,0.6 -5.9,3.3 -11.2,1.5c0,0 -2.3,-0.4 -6.7,-4.5l-1.4,-1.2c-0.1,0 -1.5,-0.8 0.5,-1.5z" class="st11"/>
    <g id="svg_27">
     <path id="svg_28" fill=" rgb(44, 44, 44)" d="m189.850195,90.08747l1.4,1.2c4.5,4 6.7,4.5 6.7,4.5c5.4,1.8 9.7,-1 11.2,-1.5c1.5,-0.6 0.9,-1.7 0.9,-1.7c-0.2,-0.6 -0.8,-2 -1.7,-3c-0.9,-1.1 -1.1,-0.8 -0.8,-0.2c0.3,0.7 0.5,0.8 0.9,2c0.4,1.1 0,0.6 -1.6,-0.7c-1.6,-1.3 -3.6,-2.9 -5.5,-3.5c-2.3,-0.7 -5,-0.4 -6.2,0c-1.2,0.3 -4.8,1.4 -4.8,1.4c-1.9,0.7 -0.5,1.5 -0.5,1.5zm11.8,1.9c0,0 -0.6,0.3 -0.9,-0.1c0,0 -0.3,-0.7 0.1,-1.1c0.4,-0.4 0.9,-0.1 1,0.2c0.2,0.2 0.1,0.8 -0.2,1zm-3.8,-2.1c0.2,-0.7 0.7,-0.8 1.2,-0.6c0.5,0.2 0.7,0.8 0.4,1.3c0,0 -0.3,0.5 -1,0.3c0,0.1 -0.7,-0.3 -0.6,-1zm-5.2,-0.7c0,0 2,-0.7 4,-1c-0.3,0.7 -1.1,2.5 -0.3,3.7c0,0 0.9,1.8 2.9,2.3c2.1,0.5 4.6,-0.3 5.4,-3.8c0.1,0.1 0.3,0.2 0.4,0.3c2,1.6 2.7,2.3 2.7,2.3s0.7,0.6 -0.4,1c-1.2,0.4 -4.8,2.3 -9,1.1c0,0 -2.2,-0.6 -4.4,-2.8c0,0 -0.9,-0.9 -1.6,-1.5c-0.3,-0.4 -1.7,-1.3 0.3,-1.6z" class="st2"/>
     <path id="svg_29" fill=" rgb(44, 44, 44)" d="m191.250195,87.38747c0,0 4.8,-2.4 8.5,-2.1c3.7,0.3 4.9,1.4 5.5,1.7c0.6,0.3 1,0.2 0.1,-0.6c-0.8,-0.8 -3.3,-2.4 -7.2,-2.1c-3.6,0.3 -4.9,1.4 -5.7,1.8c-0.8,0.5 -2.4,1.5 -1.2,1.3z" class="st2"/>
    </g>
    <path id="svg_30" fill=" rgb(44, 44, 44)" d="m218.250195,151.58747l27.9,-103.4l-66.1,-17.9l-0.2,0.7l-27.7,102.6l66.1,18zm-28.4,-117.1c4.3,1.2 9.8,2.6 15.6,4.2c4.9,1.3 10,2.7 14.9,4c5.9,1.6 11.4,3.1 15.6,4.2c4.9,1.3 8.1,2.2 8.4,2.3c-0.1,0.3 -1.4,5.1 -3.4,12.5c-5.1,18.8 -14.7,54.4 -20,74.1c-2.2,8.2 -3.7,13.7 -3.8,14c-0.3,-0.1 -3.2,-0.9 -7.7,-2.1c-4.3,-1.2 -10,-2.7 -16.1,-4.3c-5,-1.4 -10.3,-2.8 -15.3,-4.1c-6.1,-1.6 -11.7,-3.2 -16.1,-4.3c-4.7,-1.3 -7.9,-2.1 -8.2,-2.2c0.1,-0.3 1.5,-5.5 3.6,-13.4c5.3,-19.8 15.2,-56.4 20.3,-75.2c1.9,-7.1 3.1,-11.6 3.2,-11.9c0.5,-0.1 3.9,0.8 9,2.2z" class="st2"/>
   </g>
  </g>
 </g>
</svg>